<mxfile host="Electron" modified="2023-04-16T16:50:00.618Z" agent="Mozilla/5.0 (Windows NT 10.0; Win64; x64) AppleWebKit/537.36 (KHTML, like Gecko) draw.io/21.1.2 Chrome/106.0.5249.199 Electron/21.4.3 Safari/537.36" etag="OomlPNCPlO3aPZcAZoSA" version="21.1.2" type="device">
  <diagram name="Page-1" id="AAvt_jfmFA6om0BTTyjX">
    <mxGraphModel dx="1418" dy="828" grid="1" gridSize="10" guides="1" tooltips="1" connect="1" arrows="1" fold="1" page="1" pageScale="1" pageWidth="850" pageHeight="1100" math="0" shadow="0">
      <root>
        <mxCell id="0" />
        <mxCell id="1" parent="0" />
        <mxCell id="yXIJ5aFNupt4woxmxci2-10" value="&amp;nbsp;" style="html=1;whiteSpace=wrap;fillColor=none;strokeColor=none;" parent="1" vertex="1">
          <mxGeometry x="40" y="40" width="80" height="120" as="geometry" />
        </mxCell>
        <mxCell id="yXIJ5aFNupt4woxmxci2-6" value="Мобильное приложение" style="html=1;whiteSpace=wrap;rounded=1;fontStyle=1;verticalAlign=top;strokeWidth=2;" parent="1" vertex="1">
          <mxGeometry x="180" y="180" width="200" height="130" as="geometry" />
        </mxCell>
        <mxCell id="yXIJ5aFNupt4woxmxci2-3" value="Мобильное приложение" style="html=1;whiteSpace=wrap;rounded=1;fontStyle=1;verticalAlign=top;strokeWidth=2;" parent="1" vertex="1">
          <mxGeometry x="180" y="40" width="200" height="130" as="geometry" />
        </mxCell>
        <mxCell id="yXIJ5aFNupt4woxmxci2-1" value="any" style="shape=umlActor;verticalLabelPosition=bottom;verticalAlign=top;html=1;strokeWidth=2;" parent="1" vertex="1">
          <mxGeometry x="65" y="70" width="30" height="60" as="geometry" />
        </mxCell>
        <mxCell id="yXIJ5aFNupt4woxmxci2-13" style="rounded=0;orthogonalLoop=1;jettySize=auto;html=1;exitX=1;exitY=0.5;exitDx=0;exitDy=0;entryX=0;entryY=0.5;entryDx=0;entryDy=0;entryPerimeter=0;dashed=1;strokeWidth=2;endArrow=none;endFill=0;" parent="1" source="yXIJ5aFNupt4woxmxci2-2" target="yXIJ5aFNupt4woxmxci2-8" edge="1">
          <mxGeometry relative="1" as="geometry" />
        </mxCell>
        <mxCell id="yXIJ5aFNupt4woxmxci2-2" value="Забыли пароль" style="ellipse;whiteSpace=wrap;html=1;strokeWidth=2;fontStyle=1" parent="1" vertex="1">
          <mxGeometry x="210" y="72.5" width="140" height="70" as="geometry" />
        </mxCell>
        <mxCell id="yXIJ5aFNupt4woxmxci2-14" style="rounded=0;orthogonalLoop=1;jettySize=auto;html=1;exitX=1;exitY=0.5;exitDx=0;exitDy=0;entryX=0;entryY=0.5;entryDx=0;entryDy=0;entryPerimeter=0;strokeWidth=2;endArrow=none;endFill=0;dashed=1;" parent="1" source="yXIJ5aFNupt4woxmxci2-5" target="yXIJ5aFNupt4woxmxci2-9" edge="1">
          <mxGeometry relative="1" as="geometry" />
        </mxCell>
        <mxCell id="yXIJ5aFNupt4woxmxci2-5" value="Смена пароля" style="ellipse;whiteSpace=wrap;html=1;strokeWidth=2;fontStyle=1" parent="1" vertex="1">
          <mxGeometry x="210" y="220" width="140" height="70" as="geometry" />
        </mxCell>
        <mxCell id="yXIJ5aFNupt4woxmxci2-8" value="POST&amp;nbsp; &amp;nbsp;/api/v1/users/forget-password&lt;br&gt;HTTP statuses: 201, 500&lt;br&gt;&lt;br&gt;Логин и сгенерированый пароль приходит на электронную почту" style="shape=note2;boundedLbl=1;whiteSpace=wrap;html=1;size=25;verticalAlign=middle;align=left;strokeWidth=2;fontStyle=1;fontFamily=Courier New;" parent="1" vertex="1">
          <mxGeometry x="400" y="67.06" width="320" height="80.87" as="geometry" />
        </mxCell>
        <mxCell id="yXIJ5aFNupt4woxmxci2-9" value="PATCH&amp;nbsp; /api/v1/users/change-password&lt;br&gt;HTTP status: 200, 400, 401, 500&lt;br&gt;&lt;br&gt;Вводим старый и новый пароль" style="shape=note2;boundedLbl=1;whiteSpace=wrap;html=1;size=25;verticalAlign=middle;align=left;strokeWidth=2;fontStyle=1;fontFamily=Courier New;" parent="1" vertex="1">
          <mxGeometry x="400" y="221.63" width="320" height="66.75" as="geometry" />
        </mxCell>
        <mxCell id="uKyEISd4zeSecbFLl26o-4" style="edgeStyle=orthogonalEdgeStyle;rounded=0;orthogonalLoop=1;jettySize=auto;html=1;exitX=1;exitY=0.5;exitDx=0;exitDy=0;entryX=0;entryY=0.5;entryDx=0;entryDy=0;strokeWidth=2;" parent="1" source="uKyEISd4zeSecbFLl26o-2" target="yXIJ5aFNupt4woxmxci2-5" edge="1">
          <mxGeometry relative="1" as="geometry" />
        </mxCell>
        <mxCell id="uKyEISd4zeSecbFLl26o-2" value="&amp;nbsp;" style="html=1;whiteSpace=wrap;fillColor=none;strokeColor=none;" parent="1" vertex="1">
          <mxGeometry x="40" y="195.01" width="80" height="120" as="geometry" />
        </mxCell>
        <mxCell id="uKyEISd4zeSecbFLl26o-3" value="user" style="shape=umlActor;verticalLabelPosition=bottom;verticalAlign=top;html=1;strokeWidth=2;" parent="1" vertex="1">
          <mxGeometry x="65" y="225.01" width="30" height="60" as="geometry" />
        </mxCell>
        <mxCell id="uKyEISd4zeSecbFLl26o-5" style="rounded=0;orthogonalLoop=1;jettySize=auto;html=1;exitX=1;exitY=0.5;exitDx=0;exitDy=0;entryX=0;entryY=0.5;entryDx=0;entryDy=0;strokeWidth=2;" parent="1" source="yXIJ5aFNupt4woxmxci2-10" target="yXIJ5aFNupt4woxmxci2-2" edge="1">
          <mxGeometry relative="1" as="geometry" />
        </mxCell>
      </root>
    </mxGraphModel>
  </diagram>
</mxfile>
